<?xml version="1.0" standalone="no"?>
<!DOCTYPE svg PUBLIC "-//W3C//DTD SVG 20010904//EN"
 "http://www.w3.org/TR/2001/REC-SVG-20010904/DTD/svg10.dtd">
<svg version="1.0" xmlns="http://www.w3.org/2000/svg"
 width="800.000000pt" height="800.000000pt" viewBox="0 0 800.000000 800.000000"
 preserveAspectRatio="xMidYMid meet">
<metadata>
Created by potrace 1.14, written by Peter Selinger 2001-2017
</metadata>
<g transform="translate(0.000000,800.000000) scale(0.100000,-0.100000)"
fill="#000000" stroke="none">
<path d="M4635 7720 c-3 -5 -1 -10 4 -10 6 0 11 5 11 10 0 6 -2 10 -4 10 -3 0
-8 -4 -11 -10z"/>
<path d="M4721 7658 c-6 -13 -9 -15 -7 -5 3 9 1 17 -4 17 -6 0 -10 -11 -10
-25 0 -14 4 -25 8 -25 12 0 42 34 42 48 0 20 -16 14 -29 -10z"/>
<path d="M3718 7656 c-10 -7 -18 -16 -18 -20 0 -10 38 -7 46 5 11 18 -10 29
-28 15z"/>
<path d="M3964 7646 c-16 -17 -25 -58 -11 -53 9 3 30 57 24 63 -1 1 -7 -3 -13
-10z"/>
<path d="M3760 7625 c-7 -8 -24 -15 -39 -15 -36 0 -46 -10 -48 -47 l-3 -32 33
13 c17 7 38 11 45 9 6 -3 12 0 12 6 0 6 12 11 28 11 26 0 70 20 45 20 -7 0
-10 7 -6 16 5 14 3 15 -15 5 -22 -12 -39 0 -27 19 10 16 -11 12 -25 -5z"/>
<path d="M4231 7616 c-16 -19 -11 -29 8 -17 7 5 12 14 9 21 -3 9 -8 7 -17 -4z"/>
<path d="M4578 7619 c-14 -8 -15 -15 -6 -39 11 -34 23 -32 30 4 7 33 -3 47
-24 35z"/>
<path d="M4195 7609 c-4 -6 -5 -12 -2 -15 2 -3 7 2 10 11 7 17 1 20 -8 4z"/>
<path d="M4616 7604 c-13 -34 -6 -44 28 -44 36 0 52 12 41 30 -5 8 -11 7 -21
-1 -11 -9 -14 -8 -14 4 0 21 -27 29 -34 11z"/>
<path d="M3984 7586 c-3 -9 -12 -16 -19 -16 -12 0 -30 -29 -22 -36 2 -2 16 10
32 26 16 16 26 33 22 36 -4 4 -9 -1 -13 -10z"/>
<path d="M4153 7565 c-13 -19 -23 -38 -23 -42 0 -5 -9 -14 -20 -21 -24 -15
-27 -42 -4 -42 9 0 29 8 45 17 22 13 29 24 27 43 -1 14 0 30 4 35 3 6 3 18 -1
27 -5 14 -10 11 -28 -17z"/>
<path d="M3845 7570 c-4 -6 -11 -8 -16 -5 -5 4 -9 2 -9 -4 0 -6 -13 -17 -30
-26 -16 -9 -30 -22 -30 -30 0 -8 -6 -15 -13 -15 -8 0 -22 -9 -32 -20 -31 -34
-50 -24 -21 11 33 39 33 56 2 35 -14 -9 -32 -13 -40 -10 -9 3 -16 1 -16 -5 0
-6 -9 -11 -20 -11 -21 0 -55 -53 -45 -70 3 -5 20 -3 39 5 18 8 46 13 62 11 18
-1 39 6 57 21 50 40 105 23 83 -27 -6 -14 -13 -27 -17 -30 -3 -3 -10 -16 -14
-29 l-7 -24 27 21 c15 12 31 22 36 22 4 0 20 5 36 11 26 10 26 12 8 19 -18 7
-18 9 10 21 35 15 75 56 75 76 0 11 -7 9 -26 -6 -34 -27 -46 -26 -42 1 4 31
-25 35 -50 8 -12 -13 -22 -17 -26 -11 -4 5 0 13 7 18 8 4 18 18 21 31 8 23 2
30 -9 12z"/>
<path d="M4210 7559 c0 -5 5 -7 10 -4 6 3 10 8 10 11 0 2 -4 4 -10 4 -5 0 -10
-5 -10 -11z"/>
<path d="M4221 7541 c-29 -8 -39 -29 -17 -37 9 -3 16 -15 16 -25 0 -27 28 -24
56 6 16 18 19 25 9 25 -8 0 -15 6 -15 14 0 18 -19 24 -49 17z"/>
<path d="M4628 7533 c7 -3 16 -2 19 1 4 3 -2 6 -13 5 -11 0 -14 -3 -6 -6z"/>
<path d="M4687 7523 c-4 -3 -7 -11 -7 -17 0 -6 5 -5 12 2 6 6 9 14 7 17 -3 3
-9 2 -12 -2z"/>
<path d="M4321 7477 c-14 -14 -14 -37 -1 -37 5 0 13 6 17 13 4 8 17 18 27 24
17 10 17 11 -7 11 -14 0 -30 -5 -36 -11z"/>
<path d="M3390 7415 c-23 -13 -23 -14 -5 -15 11 -1 14 -4 8 -7 -7 -2 -13 -13
-13 -23 0 -10 -6 -21 -12 -23 -18 -7 21 -6 57 2 25 5 30 11 31 39 1 17 -2 32
-6 32 -5 0 -14 2 -22 5 -7 2 -24 -2 -38 -10z"/>
<path d="M3498 7423 c-18 -5 -32 -32 -22 -42 4 -3 9 0 11 7 3 6 11 12 19 12 8
0 14 7 14 15 0 8 -1 14 -2 14 -2 -1 -10 -3 -20 -6z"/>
<path d="M4080 7410 c-25 -19 -23 -37 3 -27 11 4 33 48 24 47 -1 0 -13 -9 -27
-20z"/>
<path d="M4360 7423 c-8 -3 -25 -15 -38 -26 -17 -16 -19 -23 -10 -29 10 -6 10
-10 -2 -18 -19 -12 1 -13 32 -1 28 11 87 61 73 61 -6 0 -16 -5 -22 -11 -17
-17 -37 -1 -22 17 12 15 12 15 -11 7z"/>
<path d="M3495 7374 c-14 -11 -17 -17 -8 -22 18 -11 5 -52 -14 -45 -10 4 -23
-3 -34 -18 -15 -20 -19 -21 -19 -6 0 23 -7 22 -52 -10 -30 -20 -42 -23 -50
-15 -9 9 -7 12 8 12 10 0 30 9 44 20 14 11 31 20 38 20 6 0 12 5 12 10 0 15
-41 12 -74 -5 -25 -13 -27 -13 -22 0 3 9 0 15 -9 15 -20 0 -30 -21 -14 -31 10
-6 4 -9 -19 -9 -20 0 -31 -4 -27 -10 4 -6 -5 -10 -19 -10 -14 0 -26 5 -26 10
0 6 7 10 15 10 8 0 15 5 15 11 0 16 -59 0 -81 -22 -10 -10 -27 -19 -37 -19
-11 0 -44 -8 -75 -19 l-57 -18 6 23 c4 15 2 24 -5 24 -6 0 -11 -6 -11 -12 0
-9 -3 -8 -10 2 -7 12 -12 12 -22 2 -16 -16 -33 -15 -19 2 9 11 4 15 -26 20
-54 8 -91 7 -97 -3 -4 -5 4 -7 16 -3 14 3 19 1 14 -6 -7 -12 8 -17 79 -27 33
-5 44 -9 34 -15 -15 -9 -152 14 -181 30 -11 6 -18 5 -21 -4 -7 -19 1 -26 30
-26 14 0 21 -4 18 -10 -7 -12 -65 -14 -65 -2 0 14 -63 0 -92 -20 -16 -11 -33
-16 -39 -12 -8 4 -9 3 -5 -4 4 -7 14 -12 22 -12 8 0 12 -5 9 -10 -4 -6 -21 -8
-40 -4 -19 3 -35 1 -39 -5 -4 -6 -2 -11 5 -11 8 0 6 -7 -5 -19 -19 -21 -54
-18 -36 3 7 9 2 11 -20 8 -36 -5 -63 -31 -34 -33 11 -1 24 -1 31 0 6 1 14 -3
18 -9 9 -14 -31 -13 -72 2 -27 10 -38 10 -54 0 -11 -7 -24 -10 -29 -7 -12 8
-12 3 0 -29 6 -16 6 -26 0 -26 -12 0 -31 36 -23 44 3 3 1 6 -6 6 -8 0 -11 -8
-8 -20 5 -21 -20 -42 -65 -54 -15 -3 -36 -15 -46 -26 -11 -11 -28 -22 -39 -25
-33 -6 -104 -55 -97 -66 3 -6 -3 -13 -15 -16 -12 -3 -21 -12 -21 -20 0 -9 -6
-13 -15 -10 -17 7 -30 -9 -14 -18 11 -7 -50 -55 -70 -55 -6 0 -8 -6 -5 -14 3
-8 -2 -16 -13 -19 -16 -4 -16 -5 0 -6 20 -1 23 -17 4 -24 -8 -3 -39 -8 -70
-12 -59 -8 -78 -24 -29 -26 21 -1 15 -5 -28 -19 -32 -11 -45 -19 -32 -19 20
-1 21 -4 12 -21 -6 -11 -8 -25 -5 -30 4 -6 -3 -14 -14 -18 -11 -4 -20 -11 -20
-17 0 -5 -9 -11 -21 -13 -11 -2 -20 -10 -20 -18 0 -8 -6 -14 -14 -14 -29 0
-27 -20 3 -26 37 -8 39 -14 9 -33 -20 -12 -20 -15 -5 -26 15 -11 14 -14 -13
-38 -16 -15 -40 -28 -52 -28 -17 -1 -19 -2 -5 -6 24 -6 21 -37 -5 -57 -22 -16
-22 -16 -2 -11 17 4 20 1 19 -17 -1 -12 -6 -23 -12 -25 -5 -2 -8 -14 -6 -28 4
-16 -3 -30 -21 -46 -14 -12 -23 -26 -20 -31 4 -5 16 -1 28 10 39 35 51 37 23
3 -15 -18 -25 -37 -21 -42 3 -5 1 -9 -4 -9 -5 0 -12 -12 -15 -26 -3 -18 -1
-24 9 -20 38 15 1 -37 -57 -79 -28 -20 -49 -39 -46 -42 3 -3 16 2 29 11 39 27
49 20 27 -19 -24 -40 -16 -45 19 -13 21 21 20 17 -10 -42 -32 -65 -42 -100
-27 -100 4 0 10 6 13 13 3 6 5 3 3 -8 -1 -11 -9 -20 -17 -21 -31 -2 -35 -5
-20 -13 15 -10 22 -91 8 -91 -4 0 -7 -10 -7 -22 1 -13 -2 -32 -6 -42 -7 -16
-5 -18 8 -13 26 10 29 -8 8 -62 -10 -28 -14 -48 -8 -44 6 4 8 0 4 -10 -4 -11
-1 -17 8 -17 21 0 19 -30 -5 -81 -11 -24 -19 -53 -19 -64 0 -15 3 -13 14 10 9
21 14 24 14 12 1 -10 5 -15 11 -12 17 11 11 -11 -10 -35 -26 -30 -25 -42 2
-38 l23 3 1 -205 c1 -216 -5 -266 -42 -315 -22 -29 -22 -36 -17 -200 l5 -170
-42 -110 c-41 -107 -42 -113 -36 -195 3 -47 10 -121 15 -165 6 -44 10 -125 11
-180 0 -146 11 -205 76 -417 13 -43 29 -112 35 -155 6 -43 16 -81 22 -85 9 -6
8 -11 -3 -18 -12 -8 -12 -12 -3 -18 7 -5 15 -23 17 -40 3 -28 1 -32 -15 -27
-17 6 -24 -4 -20 -28 2 -15 -46 -77 -54 -69 -4 4 -5 -6 -1 -22 6 -24 4 -27 -9
-22 -9 3 -14 2 -11 -3 3 -5 -1 -22 -9 -37 -8 -16 -15 -39 -15 -51 0 -12 -6
-28 -13 -35 -9 -8 -12 -29 -9 -64 3 -32 0 -54 -7 -59 -7 -3 -71 9 -144 28
-228 60 -283 70 -345 62 -31 -4 -65 -11 -75 -17 -10 -5 -70 -18 -134 -29 -140
-24 -276 -56 -323 -75 -23 -10 -51 -13 -85 -9 -40 5 -76 -2 -180 -32 l-130
-38 -3 -1213 -2 -1212 1110 0 c857 0 1110 3 1110 12 0 9 3 9 12 0 9 -9 257
-12 1052 -12 l1041 0 45 48 c25 26 66 65 91 87 55 49 63 74 43 142 -15 52 -27
65 -37 41 -3 -7 -6 -1 -6 14 -2 60 -15 62 -28 4 -7 -32 -10 -62 -7 -67 3 -5 1
-9 -4 -9 -5 0 -15 -14 -22 -30 -7 -17 -15 -28 -18 -26 -2 3 3 21 12 40 20 43
21 151 1 199 -18 43 -20 107 -4 107 8 0 9 13 5 43 -4 23 -7 52 -7 65 1 12 -2
22 -5 22 -14 0 -53 -38 -46 -45 4 -5 2 -5 -5 -1 -9 5 -9 14 -3 32 8 19 6 26
-5 30 -19 8 -20 40 -2 51 23 14 27 39 6 39 -30 0 -45 -40 -30 -82 7 -20 10
-38 7 -41 -3 -4 -6 -1 -6 5 0 7 -4 12 -10 12 -5 0 -10 -11 -10 -25 0 -18 -4
-23 -15 -19 -8 4 -15 14 -15 23 0 9 -6 23 -12 30 -10 10 -10 15 -1 18 7 3 10
17 6 39 -4 22 -2 34 6 34 6 0 11 9 11 20 0 11 -6 20 -14 20 -8 0 -21 2 -29 6
-11 4 -15 -6 -16 -48 -1 -29 -2 -64 -2 -78 -1 -14 2 -65 6 -114 4 -57 3 -86
-3 -82 -12 7 -37 84 -52 164 -12 60 -13 61 -30 42 -23 -26 -31 -15 -24 30 4
23 2 40 -5 44 -6 4 -11 16 -11 26 0 11 -12 30 -27 44 -26 25 -27 46 -1 30 24
-15 48 -11 48 8 0 10 -5 18 -10 18 -6 0 -8 10 -5 23 4 15 1 28 -9 36 -17 14
-22 41 -7 41 14 0 20 38 7 44 -7 3 -6 8 4 15 11 8 18 5 26 -12 12 -21 13 -20
19 16 4 21 13 37 21 37 8 0 14 5 14 10 0 6 -7 10 -15 10 -8 0 -15 7 -15 16 0
9 6 14 13 11 8 -3 20 -1 28 4 12 8 12 10 -1 19 -8 5 -19 11 -24 13 -5 2 -1 15
9 31 18 27 18 28 -2 47 l-20 20 -16 -33 c-12 -24 -30 -40 -71 -58 -31 -14 -56
-28 -56 -32 0 -4 -6 -5 -14 -2 -20 8 -30 -14 -27 -63 1 -24 -2 -43 -8 -43 -5
0 -9 13 -9 29 1 15 -2 33 -6 39 -4 7 2 22 13 34 24 25 28 78 7 78 -18 0 -29
-16 -32 -48 -4 -31 -14 -42 -14 -14 0 12 -8 23 -21 27 -20 7 -17 10 26 37 39
24 46 33 41 51 -4 12 -15 55 -26 95 -11 40 -22 77 -25 82 -8 13 7 150 16 150
5 0 9 -13 9 -28 0 -16 6 -37 14 -47 13 -18 14 -18 20 3 4 12 12 22 17 22 6 0
8 9 4 19 -3 11 -3 32 1 48 7 26 9 24 26 -32 10 -33 18 -68 18 -77 0 -11 5 -15
15 -12 11 5 15 22 15 68 0 33 5 68 11 76 11 16 7 -99 -6 -150 l-6 -25 17 22
c9 13 20 23 25 23 16 0 9 -30 -11 -50 -24 -24 -50 -26 -50 -5 0 8 -4 15 -10
15 -5 0 -10 11 -10 25 0 14 -4 25 -10 25 -6 0 -10 -26 -10 -59 0 -42 5 -62 17
-72 14 -13 13 -14 -13 -19 -25 -4 -29 -10 -32 -44 -2 -22 1 -49 7 -60 5 -12
12 -38 16 -58 3 -21 9 -38 12 -38 24 0 73 45 79 73 3 18 11 35 16 38 7 4 7 13
-1 25 -10 18 -10 18 -11 1 0 -30 -42 -67 -68 -61 -12 4 -22 10 -22 15 0 5 7 6
15 3 9 -4 15 -1 15 8 0 7 10 18 22 23 31 14 33 30 7 54 -24 22 -18 25 16 12
11 -5 25 -4 33 1 8 7 12 7 12 -1 0 -6 3 -11 8 -11 11 0 13 138 2 145 -6 4 -10
26 -10 51 0 28 -4 43 -10 39 -5 -3 -10 -1 -10 4 0 6 9 11 20 11 14 0 20 -7 20
-21 0 -14 5 -19 14 -16 9 4 17 -2 21 -14 14 -43 45 -5 45 55 0 54 20 43 21
-11 l2 -48 9 57 c6 32 14 58 19 58 5 0 9 -4 9 -10 0 -5 5 -10 11 -10 6 0 19
-10 30 -23 l18 -22 1 43 c0 53 26 87 42 58 8 -15 12 -16 19 -5 6 10 9 4 9 -17
0 -35 19 -57 38 -45 8 5 11 24 8 56 -3 38 0 52 13 61 14 11 14 14 -3 33 -11
12 -25 21 -32 21 -7 0 -17 7 -22 17 -6 10 -16 14 -26 10 -14 -6 -15 -3 -6 13
12 22 35 26 44 8 3 -7 4 -4 3 6 -1 12 8 25 23 33 14 7 20 13 15 13 -6 0 -16 9
-23 20 -11 18 -10 20 8 20 11 0 20 -7 20 -15 0 -8 7 -15 15 -15 18 0 19 9 1
33 -15 19 -10 63 8 70 25 10 79 -6 83 -24 3 -11 10 -19 15 -19 5 0 6 9 3 20
-5 15 -2 20 14 20 27 0 37 -19 18 -33 -11 -8 -14 -21 -10 -40 5 -26 23 -39 23
-15 0 6 9 3 20 -7 15 -14 20 -31 20 -72 0 -29 5 -53 10 -53 6 0 10 -5 10 -11
0 -6 -8 -8 -19 -4 -21 6 -34 -24 -20 -46 8 -12 11 -11 20 1 8 12 9 11 4 -7 -3
-12 1 -48 10 -81 19 -75 19 -106 0 -122 -8 -7 -13 -16 -10 -20 3 -5 1 -11 -5
-15 -13 -8 -13 -51 0 -75 7 -14 4 -24 -17 -44 -24 -24 -27 -36 -31 -111 -3
-54 -1 -85 6 -85 5 0 15 -29 22 -64 9 -48 16 -63 26 -59 9 3 14 -2 15 -13 0
-13 4 -11 11 9 12 34 22 34 54 0 28 -30 48 -21 42 18 -4 27 -28 38 -28 13 0
-15 -2 -16 -12 -5 -11 10 -9 15 7 27 14 11 19 25 19 54 -1 22 2 40 7 40 5 0 9
7 9 15 0 8 7 15 15 15 10 0 15 10 15 30 0 17 4 30 9 30 5 0 14 29 21 65 7 36
16 67 20 70 4 3 10 -23 12 -58 3 -34 2 -63 -3 -65 -4 -2 -13 -23 -20 -48 -7
-24 -19 -44 -27 -44 -8 0 -12 -6 -9 -12 7 -24 30 -13 34 17 3 28 34 65 54 65
5 0 9 -13 9 -29 0 -17 5 -33 10 -36 6 -3 10 -15 10 -26 0 -10 7 -19 15 -19 18
0 21 -50 3 -68 -9 -9 -9 -15 1 -25 11 -10 14 -9 18 1 3 6 8 10 11 8 4 -2 5 18
4 45 -3 31 0 49 7 49 6 0 11 -18 11 -41 0 -33 3 -40 18 -37 12 2 16 11 14 31
-3 20 1 27 13 27 11 0 16 -8 15 -22 -1 -13 -2 -43 -1 -68 l1 -45 20 25 c11 14
17 32 14 40 -4 8 -11 33 -16 55 -6 22 -17 45 -26 52 -11 9 -13 24 -9 53 4 33
3 39 -8 30 -10 -8 -15 -6 -20 9 -9 28 -25 27 -26 -1 l0 -23 -11 23 c-9 17 -9
32 -1 55 6 18 14 51 18 75 4 23 11 42 16 42 6 0 16 15 24 33 8 18 14 25 15 15
1 -44 40 -1 40 44 0 16 10 30 31 42 17 10 28 20 25 24 -3 3 -15 -3 -26 -13
-11 -10 -20 -13 -20 -7 0 7 4 12 8 12 8 0 32 43 32 56 0 3 -9 0 -19 -6 -33
-17 -34 -11 -3 15 21 18 29 31 25 46 -4 13 -1 19 8 17 11 -2 14 18 15 97 3
142 3 145 15 145 6 0 13 -9 16 -20 8 -29 20 -25 37 13 22 50 24 61 14 80 -8
15 -12 16 -26 5 -14 -11 -15 -11 -9 5 4 10 7 34 7 53 0 25 4 33 12 28 7 -4 2
7 -11 25 -13 18 -20 39 -17 48 6 14 11 12 34 -13 15 -16 40 -38 56 -50 25 -18
30 -31 42 -105 12 -78 12 -86 -6 -116 -13 -23 -17 -40 -11 -55 8 -21 8 -21 15
5 7 31 26 36 26 7 0 -11 5 -20 10 -20 6 0 10 -7 10 -15 0 -8 -7 -15 -15 -15
-9 0 -15 -10 -15 -26 0 -14 -5 -34 -11 -45 -6 -11 -11 -33 -11 -50 -1 -16 -4
-29 -8 -29 -13 0 -29 -53 -29 -92 1 -20 -2 -42 -6 -48 -4 -6 -9 -24 -12 -41
-4 -25 1 -32 34 -51 39 -24 92 -46 131 -55 17 -4 22 -1 22 15 0 11 7 25 14 32
16 13 13 83 -4 88 -6 2 -10 15 -10 30 0 14 -8 34 -17 44 -13 14 -14 21 -5 30
7 7 12 21 12 31 0 17 -2 17 -21 -4 l-20 -24 6 44 c3 24 13 50 22 56 10 7 14
19 10 29 -4 9 -3 16 2 16 4 0 11 23 14 51 6 50 32 90 67 101 8 2 15 13 15 24
0 28 33 30 38 2 2 -13 5 5 6 39 1 39 6 63 14 66 19 6 25 246 6 258 -14 9 -6
52 14 70 9 9 17 24 17 34 0 15 -2 16 -17 4 -16 -13 -16 -13 0 11 9 13 17 31
16 40 0 10 -2 11 -6 3 -2 -7 -11 -13 -19 -13 -8 0 -13 -5 -11 -12 2 -14 -25
-18 -35 -4 -3 5 3 16 13 25 19 15 19 18 4 48 -20 39 -35 51 -35 26 0 -16 -1
-16 -19 2 -23 25 -40 71 -21 60 9 -5 11 -4 6 4 -4 6 -11 9 -16 6 -4 -3 -11 6
-14 20 -4 14 -13 25 -21 25 -8 0 -15 9 -15 21 0 16 -4 19 -21 14 -18 -6 -20
-4 -15 13 5 14 0 25 -15 36 -12 8 -20 21 -17 28 5 14 -27 50 -36 41 -3 -4 -6
3 -6 15 0 12 -5 22 -12 22 -18 0 -78 70 -78 92 0 15 -5 18 -20 13 -14 -4 -22
-1 -26 10 -6 13 -8 14 -15 3 -7 -10 -9 -10 -9 0 0 16 -32 48 -56 54 -11 3 -26
-2 -33 -10 -13 -13 -16 -12 -29 4 -10 13 -16 15 -19 7 -7 -18 -23 -16 -23 2 0
8 -6 15 -14 15 -7 0 -16 9 -19 21 -3 11 -15 23 -26 26 -12 3 -21 14 -21 24 0
11 -6 19 -14 19 -8 0 -16 6 -19 13 -3 6 -2 -25 1 -70 6 -100 -13 -161 -62
-198 -47 -36 -67 -33 -59 7 5 24 3 29 -7 23 -10 -6 -12 -3 -8 13 4 14 0 22
-13 25 -11 3 -18 10 -17 15 3 10 -39 52 -53 52 -4 0 -41 5 -82 10 -46 7 -83 7
-98 1 -17 -6 -35 -5 -57 5 -18 7 -38 11 -46 8 -7 -3 -25 10 -39 30 -15 19 -22
36 -16 38 5 2 -17 23 -50 46 -34 23 -61 46 -61 50 0 4 -18 27 -40 51 -22 23
-40 47 -40 52 0 6 -4 8 -9 5 -9 -6 -25 38 -23 64 1 10 0 11 -4 3 -10 -23 -25
-14 -18 11 4 16 1 25 -11 30 -12 4 -14 10 -7 19 5 6 8 26 5 42 -3 17 -7 46 -8
66 -1 20 -5 41 -9 48 -4 6 -4 20 -1 31 4 12 8 37 10 56 2 20 8 41 14 47 6 6
11 19 11 29 0 10 9 23 20 30 11 7 20 20 20 29 0 10 11 20 25 23 14 4 25 11 25
18 0 14 39 48 57 48 7 0 18 10 23 23 13 30 46 67 61 67 6 0 18 8 26 18 10 12
16 14 19 5 3 -7 14 -13 24 -13 10 0 21 -4 25 -9 3 -5 19 -12 35 -16 17 -4 30
-11 30 -16 0 -5 8 -9 17 -9 22 0 83 -42 83 -57 0 -7 4 -13 10 -13 5 0 18 -10
29 -21 12 -14 26 -19 37 -15 9 3 22 2 29 -4 7 -6 26 -10 42 -8 16 2 27 -2 26
-8 -1 -7 10 -10 27 -8 17 2 30 -1 30 -6 0 -6 7 -10 15 -10 9 0 18 -6 21 -14 3
-8 17 -22 31 -31 23 -15 26 -15 38 1 11 16 15 16 30 4 14 -12 18 -12 26 1 8
12 10 12 19 -1 5 -8 10 -10 10 -4 0 6 13 9 30 6 17 -2 30 -10 30 -17 0 -16 52
-17 63 -1 6 7 7 5 3 -6 -9 -28 63 -21 91 9 12 12 28 23 35 23 9 0 9 -3 -2 -10
-8 -5 -11 -13 -6 -17 4 -4 16 4 27 19 12 16 26 25 35 21 8 -3 20 0 27 5 7 6
32 13 54 14 23 2 39 7 35 12 -3 5 3 6 13 3 11 -5 22 -1 30 9 6 9 29 19 50 23
38 6 38 7 20 25 -18 18 -18 18 16 12 19 -3 28 -3 22 0 -18 8 -16 25 2 18 8 -4
23 0 32 7 13 11 17 11 20 2 3 -7 11 -13 19 -13 9 0 13 4 9 9 -3 5 -1 12 4 15
5 4 12 2 16 -4 4 -6 10 -8 15 -5 5 3 28 1 51 -5 23 -6 45 -8 48 -3 3 4 18 14
33 22 l26 13 -38 70 c-21 39 -54 89 -74 111 -20 22 -36 44 -36 49 0 4 -9 17
-20 28 -11 11 -17 26 -14 33 3 8 -2 20 -11 27 -8 7 -15 18 -15 25 0 8 -6 16
-12 18 -10 4 -10 6 0 6 19 1 14 21 -6 21 -26 0 -34 11 -21 27 9 10 8 13 -5 13
-18 0 -22 16 -4 22 6 2 -2 13 -18 24 -41 26 -140 134 -124 134 7 0 40 -27 73
-60 33 -33 62 -58 65 -56 2 3 -22 30 -53 62 -31 31 -54 63 -51 70 3 7 -4 16
-14 19 -11 3 -28 17 -38 30 -13 17 -25 22 -41 18 -25 -6 -29 12 -5 25 14 8 13
10 -5 15 -14 3 -21 0 -21 -9 0 -22 -16 -16 -36 13 -10 16 -19 23 -22 15 -2 -6
-9 -12 -16 -12 -13 0 -47 36 -40 42 2 3 -10 3 -26 0 -22 -3 -30 -1 -28 9 3 14
-8 15 -67 5 -16 -3 -22 -3 -13 0 14 4 15 8 6 18 -7 7 -20 11 -29 9 -9 -3 -20
0 -24 7 -5 8 -12 7 -25 -5 -17 -15 -21 -15 -51 1 -48 25 -53 31 -83 124 -15
47 -29 91 -32 99 -4 11 -8 10 -19 -5 -14 -18 -14 -18 -15 0 0 14 -3 16 -13 7
-10 -8 -17 -7 -25 1 -9 9 -15 3 -26 -23 -9 -19 -15 -27 -16 -20 0 11 -3 12
-12 3 -8 -8 -15 -3 -28 21 -10 18 -15 38 -13 45 3 6 0 12 -6 12 -6 0 -11 7
-11 15 0 8 -9 15 -21 15 -11 0 -18 4 -15 9 5 8 -57 71 -70 71 -3 0 -14 10 -24
22 l-17 22 -8 -23 c-5 -18 -9 -20 -22 -10 -12 10 -16 10 -23 -1 -7 -11 -11
-11 -24 -1 -13 11 -16 11 -16 0 -1 -10 -4 -8 -11 4 -5 9 -19 17 -29 17 -10 0
-26 10 -34 21 -12 17 -21 20 -45 16 -31 -6 -43 6 -18 17 6 4 2 4 -10 2 -12 -2
-24 1 -26 7 -2 8 -10 5 -21 -6 -11 -11 -26 -15 -37 -12 -14 5 -19 1 -19 -14 0
-19 -10 -26 -32 -22 -5 0 -8 -8 -8 -19 0 -11 -6 -20 -13 -20 -7 0 -20 -12 -29
-27 -12 -19 -18 -22 -18 -12 0 12 -7 15 -25 11 -15 -2 -25 0 -25 7 0 6 4 11 9
11 5 0 7 9 4 20 -3 11 0 26 6 33 9 11 2 17 -29 27 -32 11 -39 17 -34 32 3 12
0 18 -10 18 -12 0 -16 11 -17 48 l0 47 -17 -53 c-17 -55 -31 -60 -33 -13 l-1
26 -11 -27 c-15 -37 -27 -35 -28 5 0 17 -3 26 -6 20 -5 -15 -23 -17 -23 -4 0
5 6 16 13 23 7 7 14 25 15 40 1 15 2 31 3 35 5 29 -5 33 -17 8 l-14 -30 6 40
c4 22 13 43 19 47 31 19 115 89 115 97 0 5 14 11 30 15 22 4 35 15 45 38 9 21
14 26 15 15 0 -11 6 -17 13 -14 7 2 11 17 9 35 -3 29 -1 32 25 33 15 0 51 1
78 2 28 1 93 -3 145 -9 55 -7 99 -8 105 -3 5 5 30 9 56 9 32 0 49 5 53 15 3 8
1 15 -4 15 -6 0 -10 -4 -10 -10 0 -5 -5 -10 -11 -10 -6 0 -8 7 -5 16 4 12 2
15 -9 10 -8 -3 -14 -2 -14 2 4 27 -3 34 -27 28 -38 -10 -63 1 -57 24 3 11 10
18 16 17 6 -1 15 15 20 36 11 46 25 49 21 5 -2 -18 -1 -24 2 -14 4 11 13 26
21 34 8 8 12 23 10 33 -3 11 0 16 8 13 9 -4 11 3 7 22 -4 22 -2 25 14 20 13
-4 24 1 32 15 10 16 10 19 1 13 -9 -5 -10 -2 -4 12 13 32 18 71 7 55 -14 -20
-32 -4 -32 29 0 35 13 45 30 25 16 -19 31 -19 24 0 -4 9 0 15 10 15 9 0 16 -8
16 -20 0 -13 7 -20 18 -20 10 0 22 -3 26 -7 19 -19 47 -8 62 24 9 18 21 33 28
33 6 0 4 5 -4 10 -12 8 -12 10 5 10 11 0 34 13 51 28 18 15 41 33 52 41 11 8
23 24 27 35 4 13 8 16 12 8 7 -17 23 -5 23 17 0 11 20 28 55 47 48 25 53 29
35 36 -12 4 -18 12 -15 18 4 6 -24 10 -79 10 -51 0 -86 4 -86 10 0 6 5 10 12
10 6 0 8 3 5 6 -4 4 -13 1 -21 -5 -8 -7 -27 -11 -43 -9 l-28 4 27 11 c44 19
41 31 -5 20 -23 -5 -50 -13 -59 -18 -22 -11 -51 -12 -44 -1 5 9 -65 0 -133
-18 -31 -7 -47 -8 -55 0 -7 7 -2 10 15 10 13 0 33 7 43 15 11 8 36 15 55 15
40 1 65 16 67 43 2 19 -11 23 -21 7 -9 -14 -26 -13 -22 2 1 7 -5 13 -13 14
-37 3 -41 5 -35 13 3 6 26 13 51 17 57 8 52 24 -12 42 -80 23 -95 33 -39 27
64 -8 115 -24 115 -36 0 -6 7 -4 15 5 25 25 17 36 -27 36 -24 0 -70 7 -103 15
-33 8 -81 14 -107 15 -25 0 -48 4 -50 9 -5 14 -91 18 -95 5 -2 -7 17 -14 49
-18 29 -3 73 -9 98 -14 l45 -9 -28 -11 c-16 -7 -60 -17 -98 -23 -61 -9 -73 -9
-88 5 -10 9 -26 16 -37 16 -11 0 -28 6 -39 13 -21 16 -10 26 39 37 17 3 31 12
31 20 0 8 4 20 7 26 12 18 -1 22 -40 13 -50 -11 -82 -11 -82 1 0 6 9 10 19 10
10 0 29 9 42 19 22 18 22 20 7 26 -10 4 -26 4 -35 -1 -10 -4 -22 -8 -28 -9 -5
0 -16 -4 -22 -8 -9 -6 -11 -3 -7 7 3 9 13 16 21 16 8 0 12 4 9 9 -9 13 14 19
52 13 21 -3 32 -1 32 8 0 8 -8 10 -26 6 -17 -5 -23 -3 -19 4 3 5 -1 10 -9 10
-19 0 -21 26 -4 36 7 5 3 10 -12 16 l-23 9 27 28 26 28 -30 -5 c-17 -2 -30
-10 -30 -18 0 -8 -4 -14 -9 -14 -16 0 -23 38 -12 59 7 12 7 22 2 25 -5 4 -11
2 -13 -2 -1 -5 -14 -5 -28 -2 l-25 7 28 13 28 14 -28 11 c-23 10 -32 9 -53 -5
-61 -41 -57 -32 36 73 13 15 24 36 24 47 0 10 5 22 10 25 6 3 10 10 10 16 0 5
-9 4 -20 -3 -28 -18 -37 -2 -13 25 28 30 38 61 18 53 -8 -3 -22 -9 -30 -12 -8
-3 -15 -2 -15 4 0 5 7 15 15 22 23 19 18 30 -14 30 -20 0 -30 -6 -34 -20 -3
-13 -11 -18 -21 -14 -8 3 -25 -1 -38 -10 -12 -9 -17 -16 -10 -16 10 0 10 -5 2
-20 -6 -11 -7 -20 -2 -20 6 0 -8 -18 -30 -40 -22 -22 -43 -38 -46 -37 -4 1 -8
-2 -9 -7 -1 -5 -6 -12 -11 -15 -12 -8 -26 -51 -16 -51 4 0 15 7 25 16 10 9 23
13 29 9 8 -5 5 -13 -9 -26 -12 -11 -21 -25 -21 -31 0 -7 18 6 40 27 43 42 53
31 20 -22 -11 -18 -17 -39 -14 -48 4 -9 -7 -30 -25 -50 -26 -30 -31 -33 -31
-15 0 25 -17 27 -24 3 -13 -39 -71 -93 -106 -99 l-35 -7 29 32 c17 17 33 27
36 21 8 -13 60 65 60 88 -1 12 -5 10 -15 -8 -11 -21 -15 -22 -20 -9 -4 11 -14
15 -26 12 -15 -4 -18 -2 -13 11 7 19 -12 22 -20 4 -7 -15 4 29 12 51 4 10 -5
7 -26 -8 -18 -12 -32 -18 -32 -12 0 5 5 13 10 16 6 3 10 15 10 26 0 14 -7 19
-25 19 -16 0 -25 6 -25 15 0 8 6 15 14 15 8 0 16 7 20 15 3 8 9 15 13 14 4 -1
14 -1 21 0 20 2 3 21 -18 21 -10 0 -22 5 -26 12 -5 8 0 9 15 5 16 -4 32 3 54
23 19 18 26 30 18 30 -8 0 -23 -8 -34 -17 -18 -17 -19 -17 -16 6 4 21 28 43
77 67 17 9 15 24 -4 24 -19 0 -84 -59 -84 -76 0 -11 -59 -54 -74 -54 -12 0 -6
20 7 20 16 1 61 39 54 46 -6 7 -80 -27 -109 -50 -10 -7 -27 -33 -38 -57 -16
-34 -19 -38 -17 -16 5 33 0 34 -30 5 l-23 -21 0 21 c0 16 -4 20 -17 15 -10 -3
-23 -11 -28 -17 -26 -27 -75 -69 -75 -64 0 4 16 23 35 44 50 52 49 55 -27 58
-26 1 -75 36 -51 36 6 0 18 3 27 6 11 4 16 1 16 -11 0 -10 5 -15 13 -12 6 3
44 17 82 32 85 34 84 34 63 49 -14 10 -15 15 -5 25 9 9 9 14 -3 21 -13 8 -13
10 1 10 16 0 49 30 49 45 0 4 -7 1 -17 -6 -15 -13 -15 -12 -5 8 23 42 10 45
-31 8 -15 -14 -27 -21 -27 -14 0 6 -8 9 -19 6 -14 -3 -17 0 -14 14 6 23 4 23
-22 3z m-22 -102 c-2 -10 -19 -26 -37 -36 -17 -9 -48 -30 -67 -46 -18 -17 -38
-30 -44 -30 -5 1 1 10 14 20 26 22 24 24 -13 10 -14 -5 -26 -17 -26 -25 0 -15
-2 -15 -17 0 -16 16 -15 18 3 28 10 6 24 12 29 13 20 4 124 58 162 83 0 1 -1
-7 -4 -17z m630 -17 c-3 -9 -8 -14 -10 -11 -3 3 -2 9 2 15 9 16 15 13 8 -4z
m-1403 -56 c0 -6 -6 -9 -12 -6 -7 2 -22 -3 -32 -12 -18 -15 -18 -15 -7 7 12
22 51 31 51 11z m1374 -42 c-21 -12 -30 -1 -14 18 10 13 15 13 21 3 5 -8 2
-16 -7 -21z m-1078 8 c16 -12 17 -14 2 -15 -23 0 -48 11 -48 21 0 14 24 11 46
-6z m94 -15 c-24 -19 -40 -25 -40 -15 0 5 51 34 60 34 3 0 -6 -8 -20 -19z
m600 -30 c0 -5 -4 -10 -10 -10 -5 0 -10 5 -10 10 0 6 5 10 10 10 6 0 10 -4 10
-10z m20 -52 c0 -5 -10 -8 -22 -7 -13 0 -17 3 -10 6 6 2 12 12 12 21 0 15 2
15 10 2 5 -8 10 -18 10 -22z m-150 -39 c-11 -8 -1 -9 35 -4 40 5 48 4 38 -6
-7 -7 -18 -14 -25 -15 -7 -2 -40 -10 -73 -18 -109 -28 -126 -17 -42 27 53 27
98 38 67 16z m153 4 c-7 -2 -19 -2 -25 0 -7 3 -2 5 12 5 14 0 19 -2 13 -5z
m-610 -60 c-13 -2 -33 -2 -45 0 -13 2 -3 4 22 4 25 0 35 -2 23 -4z m397 -33
c0 -13 -50 -13 -70 0 -11 7 -4 10 28 10 23 0 42 -4 42 -10z m-205 -40 c-18 -8
-17 -9 8 -9 15 -1 27 -5 27 -11 0 -14 -32 -12 -53 4 -14 11 -15 15 -5 19 23 9
45 6 23 -3z m465 -31 c-9 -16 -14 -19 -20 -8 -7 10 -19 10 -69 -4 -68 -19
-121 -22 -121 -7 0 11 11 13 120 30 41 6 79 15 85 21 15 15 18 -6 5 -32z m461
-12 c-16 -16 -26 0 -10 19 9 11 15 12 17 4 2 -6 -1 -17 -7 -23z m-108 -24 c-7
-2 -19 -2 -25 0 -7 3 -2 5 12 5 14 0 19 -2 13 -5z m132 -3 c3 -5 1 -10 -4 -10
-6 0 -11 5 -11 10 0 6 2 10 4 10 3 0 8 -4 11 -10z m-780 -70 c-28 -12 -88 -12
-80 0 3 6 27 10 53 9 35 0 42 -3 27 -9z m79 -12 c-9 -19 -94 -92 -94 -81 0 10
85 93 94 93 3 0 3 -6 0 -12z m411 -238 c-21 -22 -41 -37 -44 -34 -6 6 66 74
78 74 3 0 -12 -18 -34 -40z m659 0 c-32 -12 -109 -21 -100 -13 10 11 99 31
110 25 5 -3 1 -8 -10 -12z m114 -215 c-3 -3 -9 2 -12 12 -6 14 -5 15 5 6 7 -7
10 -15 7 -18z m192 -35 c0 -5 -4 -10 -10 -10 -5 0 -10 5 -10 10 0 6 5 10 10
10 6 0 10 -4 10 -10z m-150 -100 c0 -5 -2 -10 -4 -10 -3 0 -8 5 -11 10 -3 6
-1 10 4 10 6 0 11 -4 11 -10z m0 -40 c0 -5 -4 -10 -10 -10 -5 0 -10 5 -10 10
0 6 5 10 10 10 6 0 10 -4 10 -10z m-187 -16 c-3 -8 -12 -13 -20 -10 -8 3 -18
6 -21 7 -8 0 29 17 40 18 4 1 5 -6 1 -15z m-6 -106 c-3 -8 -6 -5 -6 6 -1 11 2
17 5 13 3 -3 4 -12 1 -19z m-130 -210 c-3 -8 -6 -5 -6 6 -1 11 2 17 5 13 3 -3
4 -12 1 -19z m93 -36 c0 -13 -12 -22 -22 -16 -10 6 -1 24 13 24 5 0 9 -4 9 -8z
m-539 -155 c-8 -8 -11 -7 -11 4 0 20 13 34 18 19 3 -7 -1 -17 -7 -23z m122
-484 c-7 -2 -19 -2 -25 0 -7 3 -2 5 12 5 14 0 19 -2 13 -5z m567 -173 c0 -5
-4 -10 -10 -10 -5 0 -10 5 -10 10 0 6 5 10 10 10 6 0 10 -4 10 -10z m530 -286
c0 -2 -9 -4 -21 -4 -11 0 -18 4 -14 10 5 8 35 3 35 -6z m390 -627 c0 -10 -4
-15 -10 -12 -5 3 -10 18 -10 33 0 21 2 24 10 12 5 -8 10 -23 10 -33z m-886
-1306 c25 -33 46 -67 46 -77 0 -9 3 -15 6 -11 9 9 34 -18 34 -36 0 -9 5 -17
12 -19 6 -2 13 -15 15 -29 4 -31 23 -67 50 -97 l22 -24 3 39 c3 34 4 36 15 18
8 -16 9 -31 0 -63 -6 -23 -15 -42 -20 -42 -4 0 -5 -4 -2 -10 13 -20 24 -9 32
33 10 47 25 55 33 17 3 -14 15 -44 28 -68 21 -40 42 -142 29 -142 -3 0 -11 26
-17 58 -7 31 -18 64 -25 72 -7 8 -15 22 -18 30 -3 8 -3 -16 -1 -55 2 -47 1
-62 -5 -45 -9 29 -16 19 -26 -43 -6 -40 -32 -48 -28 -8 4 31 -14 26 -22 -6 -6
-25 -8 -26 -14 -9 -6 14 -10 16 -15 7 -15 -24 -53 -31 -85 -15 -17 9 -43 14
-58 12 -23 -2 -29 1 -31 20 -3 19 -9 22 -37 20 -40 -2 -59 10 -27 19 12 3 22
10 22 15 0 6 -11 7 -25 4 -14 -4 -36 -4 -50 0 -21 5 -23 10 -19 37 l6 32 -19
-22 c-12 -15 -22 -20 -32 -14 -11 7 -11 15 -1 45 6 20 9 42 7 49 -3 6 -6 3 -6
-9 -1 -11 -8 -29 -16 -40 -13 -17 -14 -17 -15 -1 0 9 -4 17 -10 17 -14 0 -13
33 2 48 9 9 8 12 -4 12 -9 0 -19 -9 -23 -19 -6 -21 -36 -38 -32 -18 1 8 -12
12 -38 12 -29 0 -39 4 -37 14 2 8 -1 17 -5 20 -10 8 -33 48 -33 59 0 4 9 8 21
8 16 0 19 -5 14 -24 -5 -19 -2 -23 12 -20 13 2 20 16 25 48 4 25 10 62 14 84
5 27 3 37 -5 32 -6 -4 -11 -13 -11 -20 0 -7 -9 -21 -20 -31 -11 -10 -20 -25
-20 -34 0 -13 -2 -14 -9 -2 -7 10 -2 20 15 33 13 11 24 25 24 33 0 7 6 17 13
23 20 17 57 -13 57 -46 0 -15 5 -34 10 -42 7 -11 10 0 10 37 0 42 4 55 22 68
21 14 24 14 35 -1 10 -14 21 -7 82 55 38 39 77 71 85 71 8 0 35 -27 60 -59z
m383 -418 c-3 -10 -5 -2 -5 17 0 19 2 27 5 18 2 -10 2 -26 0 -35z m-37 -92
c-6 -15 -17 -28 -25 -28 -10 0 -11 5 -4 19 5 10 14 18 19 18 6 0 11 17 11 38
2 31 3 33 6 8 3 -15 -1 -40 -7 -55z m230 24 c20 -24 6 -28 -15 -5 -10 11 -13
20 -8 20 6 0 16 -7 23 -15z m-103 -57 c-2 -13 -4 -3 -4 22 0 25 2 35 4 23 2
-13 2 -33 0 -45z m-87 -26 c0 -13 -4 -20 -10 -17 -5 3 -10 21 -10 38 0 24 3
28 10 17 5 -8 10 -25 10 -38z m57 -94 c-3 -8 -6 -5 -6 6 -1 11 2 17 5 13 3 -3
4 -12 1 -19z m250 -100 c-3 -8 -6 -5 -6 6 -1 11 2 17 5 13 3 -3 4 -12 1 -19z
m-352 -147 c-3 -6 -11 -11 -17 -11 -6 0 -6 6 2 15 14 17 26 13 15 -4z m101
-17 c-3 -9 -6 -20 -6 -25 0 -6 -6 -9 -12 -8 -27 3 -38 -2 -38 -16 0 -8 7 -15
15 -15 8 0 15 -4 15 -9 0 -5 -11 -8 -25 -7 -20 1 -25 6 -25 27 0 18 6 28 20
32 11 3 20 12 20 21 0 10 8 16 21 16 15 0 19 -4 15 -16z m-97 -134 c1 -12 -2
-11 -15 2 -11 11 -14 23 -9 35 7 17 8 17 15 -2 5 -11 9 -27 9 -35z m31 -10 c0
-5 -5 -10 -11 -10 -5 0 -7 5 -4 10 3 6 8 10 11 10 2 0 4 -4 4 -10z m-915 -48
c-8 -9 -25 20 -18 31 3 5 10 2 15 -7 6 -10 7 -20 3 -24z m1275 -67 c0 -8 -4
-15 -10 -15 -5 0 -10 7 -10 15 0 8 5 15 10 15 6 0 10 -7 10 -15z m-1685 -15
c-10 -11 -22 -17 -27 -14 -12 8 11 34 30 34 13 0 12 -3 -3 -20z m-180 -25 l18
-30 -21 19 c-12 11 -22 26 -22 34 0 17 -1 18 25 -23z m262 -31 c-3 -3 -12 -4
-19 -1 -8 3 -5 6 6 6 11 1 17 -2 13 -5z m1082 -3 c10 -7 7 -9 -12 -8 -15 1
-27 5 -27 10 0 10 22 9 39 -2z m32 -14 c-10 -9 -11 -8 -5 6 3 10 9 15 12 12 3
-3 0 -11 -7 -18z m-221 -91 c0 -3 -4 -8 -10 -11 -5 -3 -10 -1 -10 4 0 6 5 11
10 11 6 0 10 -2 10 -4z m-1054 -71 c-19 -53 -36 -67 -36 -28 0 25 20 52 46 62
1 1 -4 -15 -10 -34z m1109 15 c-3 -5 -13 -10 -21 -10 -8 0 -12 5 -9 10 3 6 13
10 21 10 8 0 12 -4 9 -10z m180 -66 c2 -48 2 -49 -11 -19 -17 38 -19 94 -3 78
6 -6 12 -33 14 -59z m-1225 25 c0 -11 -4 -18 -10 -14 -5 3 -7 12 -3 20 7 21
13 19 13 -6z m-249 -59 c-16 -14 -37 -20 -70 -19 -38 1 -42 2 -21 9 14 4 39 8
57 9 17 1 35 6 38 11 3 6 9 10 13 10 4 -1 -4 -10 -17 -20z m136 -2 c-3 -8 -6
-5 -6 6 -1 11 2 17 5 13 3 -3 4 -12 1 -19z m458 -7 c-3 -6 -11 -11 -17 -11 -6
0 -6 6 2 15 14 17 26 13 15 -4z m-469 -69 c-12 -12 -18 8 -10 35 l8 28 4 -28
c2 -16 1 -31 -2 -35z m377 -14 c6 -4 8 -10 4 -15 -11 -10 -27 17 -26 42 l1 20
5 -20 c3 -11 10 -23 16 -27z m61 27 c-4 -8 -11 -15 -16 -15 -6 0 -5 6 2 15 7
8 14 15 16 15 2 0 1 -7 -2 -15z m607 -42 c-9 -16 -10 -15 -11 8 0 14 3 29 8
33 12 12 14 -22 3 -41z m-745 -199 c-4 -112 -3 -160 5 -170 9 -11 8 -18 -1
-29 -8 -10 -10 -29 -6 -58 5 -31 4 -39 -4 -31 -17 17 -28 123 -19 194 4 36 11
107 15 158 11 147 18 106 10 -64z m-309 94 c-3 -7 -5 -2 -5 12 0 14 2 19 5 13
2 -7 2 -19 0 -25z m-47 -9 c0 -4 -7 -6 -15 -3 -8 4 -15 10 -15 15 0 4 7 6 15
3 8 -4 15 -10 15 -15z m437 -46 c-3 -10 -5 -4 -5 12 0 17 2 24 5 18 2 -7 2
-21 0 -30z m-407 -107 c0 -11 -19 -15 -25 -6 -3 5 1 10 9 10 9 0 16 -2 16 -4z
m620 -26 c0 -5 -4 -10 -10 -10 -5 0 -10 5 -10 10 0 6 5 10 10 10 6 0 10 -4 10
-10z m-150 -50 c0 -5 -4 -10 -10 -10 -5 0 -10 5 -10 10 0 6 5 10 10 10 6 0 10
-4 10 -10z m-2279 -66 c17 -20 21 -46 6 -41 -6 2 -15 12 -21 23 -6 10 -15 22
-21 26 -6 5 -3 8 6 8 9 0 23 -7 30 -16z m2326 -16 c-3 -8 -6 -5 -6 6 -1 11 2
17 5 13 3 -3 4 -12 1 -19z m-2293 -47 c8 -13 -4 -42 -15 -35 -12 7 -12 44 0
44 6 0 12 -4 15 -9z m2334 -94 c-2 -16 -8 -10 -26 26 -13 26 -20 52 -17 57 9
15 47 -57 43 -83z m120 45 c5 -16 -7 -15 -38 3 l-25 15 29 -3 c17 -2 32 -9 34
-15z m-2396 -27 c58 -68 97 -125 109 -160 7 -22 17 -45 22 -52 16 -22 -15 -25
-37 -4 -23 22 -38 49 -70 123 -9 20 -27 45 -41 56 -13 10 -27 31 -31 46 -5 23
-4 25 12 19 11 -4 27 -16 36 -28z m2468 0 c0 -41 -6 -43 -31 -13 -27 31 -23
48 13 48 14 0 18 -8 18 -35z m-81 -109 c-8 -17 -8 -29 0 -44 6 -11 11 -25 11
-31 0 -19 -28 -12 -44 11 -20 28 -20 38 -2 38 14 0 25 28 26 70 l1 25 9 -23
c6 -14 6 -31 -1 -46z m-2047 24 c1 -11 3 -35 5 -52 5 -46 5 -151 0 -235 -4
-63 -2 -72 14 -76 12 -3 19 -14 19 -29 0 -17 -6 -23 -25 -24 -14 -1 -22 2 -19
8 8 12 -25 60 -36 53 -6 -4 -10 1 -10 10 0 17 -46 39 -61 29 -13 -7 -11 20 2
33 7 7 4 22 -10 49 -24 44 -26 55 -9 51 7 -1 19 18 27 43 8 25 23 63 33 86 10
22 18 45 18 51 0 12 16 21 38 22 6 1 13 -8 14 -19z m-312 -190 c-20 -13 -33
-13 -25 0 3 6 14 10 23 10 15 0 15 -2 2 -10z m10 -26 c0 -8 -5 -12 -10 -9 -6
4 -8 11 -5 16 9 14 15 11 15 -7z m-22 -130 l2 -29 -14 25 c-19 31 -20 43 -3
38 6 -3 13 -18 15 -34z m177 -4 c3 -5 1 -10 -4 -10 -6 0 -11 5 -11 10 0 6 2
10 4 10 3 0 8 -4 11 -10z"/>
<path d="M4440 2516 c0 -9 5 -16 10 -16 6 0 10 4 10 9 0 6 -4 13 -10 16 -5 3
-10 -1 -10 -9z"/>
<path d="M4497 2468 c8 -46 13 -48 13 -5 0 21 -4 37 -10 37 -5 0 -7 -14 -3
-32z"/>
<path d="M4451 2464 c0 -11 3 -14 6 -6 3 7 2 16 -1 19 -3 4 -6 -2 -5 -13z"/>
<path d="M4380 2459 c0 -5 9 -9 20 -9 11 0 20 2 20 4 0 2 -9 6 -20 9 -11 3
-20 1 -20 -4z"/>
<path d="M3641 7340 c-33 -53 -26 -66 14 -25 21 20 36 75 21 75 -2 0 -18 -22
-35 -50z"/>
<path d="M3286 7372 c-4 -7 -17 -12 -30 -12 -12 0 -31 -7 -42 -15 -18 -15 -15
-15 36 -10 30 4 63 9 73 12 20 5 18 25 -4 31 -11 3 -11 2 1 -7 13 -9 13 -11
-2 -11 -9 0 -18 5 -20 12 -3 9 -6 9 -12 0z"/>
<path d="M3119 7342 c-17 -2 -29 -11 -32 -24 -10 -36 2 -38 35 -8 35 33 35 37
-3 32z"/>
<path d="M4105 7340 c4 -6 11 -8 16 -5 14 9 11 15 -7 15 -8 0 -12 -5 -9 -10z"/>
<path d="M3720 7312 c-22 -19 -30 -31 -22 -36 15 -9 32 1 32 19 0 7 11 16 25
19 14 4 25 11 25 16 0 18 -25 10 -60 -18z"/>
<path d="M3017 7310 c-4 -14 0 -20 11 -20 23 0 48 17 39 26 -3 4 -13 1 -22 -6
-13 -11 -14 -10 -9 4 3 9 2 16 -4 16 -5 0 -12 -9 -15 -20z"/>
<path d="M3764 7293 c-17 -14 -22 -22 -12 -19 10 3 20 1 23 -5 6 -9 63 29 64
42 2 16 -50 4 -75 -18z"/>
<path d="M2960 7300 c-13 -8 -12 -10 3 -10 9 0 17 5 17 10 0 12 -1 12 -20 0z"/>
<path d="M4316 7295 c-11 -8 -15 -15 -10 -15 6 0 19 7 30 15 10 8 15 14 9 14
-5 0 -19 -6 -29 -14z"/>
<path d="M3028 7263 c7 -3 16 -2 19 1 4 3 -2 6 -13 5 -11 0 -14 -3 -6 -6z"/>
<path d="M4310 7245 c-11 -13 -10 -14 4 -9 9 3 16 10 16 15 0 13 -6 11 -20 -6z"/>
<path d="M3977 7243 c-4 -3 -7 -11 -7 -17 0 -6 5 -5 12 2 6 6 9 14 7 17 -3 3
-9 2 -12 -2z"/>
<path d="M4785 7210 c-3 -5 -2 -10 4 -10 5 0 13 5 16 10 3 6 2 10 -4 10 -5 0
-13 -4 -16 -10z"/>
<path d="M4250 7199 c0 -7 -8 -18 -17 -25 -17 -13 -17 -13 0 -14 9 0 17 4 17
9 0 5 10 13 21 16 17 6 19 9 8 16 -19 12 -29 11 -29 -2z"/>
<path d="M3910 7179 c0 -5 5 -7 10 -4 6 3 10 8 10 11 0 2 -4 4 -10 4 -5 0 -10
-5 -10 -11z"/>
<path d="M4710 7182 c0 -5 6 -15 14 -21 10 -9 16 -8 26 4 7 9 8 15 2 15 -6 0
-17 3 -26 6 -9 3 -16 2 -16 -4z"/>
<path d="M4197 7143 c-11 -10 -8 -20 8 -27 10 -4 15 1 15 14 0 20 -11 26 -23
13z"/>
<path d="M4270 7129 c0 -5 5 -7 10 -4 6 3 10 8 10 11 0 2 -4 4 -10 4 -5 0 -10
-5 -10 -11z"/>
<path d="M4629 7138 c-6 -20 -6 -38 1 -38 12 0 56 39 45 40 -6 0 -17 -6 -24
-12 -11 -10 -13 -10 -7 0 4 6 2 12 -3 12 -6 0 -11 -1 -12 -2z"/>
<path d="M3780 7100 c0 -5 5 -10 10 -10 6 0 10 5 10 10 0 6 -4 10 -10 10 -5 0
-10 -4 -10 -10z"/>
<path d="M4157 7103 c-4 -3 -7 -11 -7 -17 0 -6 5 -5 12 2 6 6 9 14 7 17 -3 3
-9 2 -12 -2z"/>
<path d="M4290 7095 c-20 -25 -4 -29 21 -6 18 16 19 21 7 21 -9 0 -21 -7 -28
-15z"/>
<path d="M4677 7093 c-12 -11 -8 -23 7 -23 8 0 16 7 20 15 5 15 -14 21 -27 8z"/>
<path d="M4588 7063 c7 -3 16 -2 19 1 4 3 -2 6 -13 5 -11 0 -14 -3 -6 -6z"/>
<path d="M4330 7049 c0 -5 5 -7 10 -4 6 3 10 8 10 11 0 2 -4 4 -10 4 -5 0 -10
-5 -10 -11z"/>
<path d="M4588 7023 c7 -3 16 -2 19 1 4 3 -2 6 -13 5 -11 0 -14 -3 -6 -6z"/>
<path d="M4285 6869 c-4 -6 -5 -12 -2 -15 2 -3 7 2 10 11 7 17 1 20 -8 4z"/>
<path d="M6264 6688 c-4 -7 -3 -8 4 -4 7 4 12 2 12 -3 0 -6 5 -11 10 -11 15 0
12 17 -5 23 -8 4 -17 1 -21 -5z"/>
<path d="M4350 6650 c-20 -5 -15 -8 30 -19 78 -19 118 -11 48 9 -29 9 -64 13
-78 10z"/>
<path d="M4745 6490 c-3 -5 1 -10 9 -10 9 0 16 5 16 10 0 6 -4 10 -9 10 -6 0
-13 -4 -16 -10z"/>
<path d="M5025 6444 c-45 -13 -21 -17 40 -6 29 6 35 9 20 13 -11 3 -38 0 -60
-7z"/>
<path d="M4925 6430 c-3 -5 -2 -10 4 -10 5 0 13 5 16 10 3 6 2 10 -4 10 -5 0
-13 -4 -16 -10z"/>
<path d="M4640 6030 c0 -5 5 -10 11 -10 5 0 7 5 4 10 -3 6 -8 10 -11 10 -2 0
-4 -4 -4 -10z"/>
<path d="M3964 5476 c-3 -8 -1 -23 5 -33 9 -15 10 -13 11 15 0 34 -7 42 -16
18z"/>
<path d="M4825 5050 c-3 -5 -1 -10 4 -10 6 0 11 5 11 10 0 6 -2 10 -4 10 -3 0
-8 -4 -11 -10z"/>
<path d="M5390 3810 c0 -5 5 -10 11 -10 5 0 7 5 4 10 -3 6 -8 10 -11 10 -2 0
-4 -4 -4 -10z"/>
<path d="M6756 3805 c4 -8 11 -15 16 -15 6 0 5 6 -2 15 -7 8 -14 15 -16 15 -2
0 -1 -7 2 -15z"/>
<path d="M6771 3754 c0 -11 3 -14 6 -6 3 7 2 16 -1 19 -3 4 -6 -2 -5 -13z"/>
<path d="M6760 3693 c0 -21 -9 -75 -21 -120 -21 -79 -20 -141 2 -127 21 13 31
62 35 172 3 72 1 112 -6 112 -5 0 -10 -17 -10 -37z"/>
<path d="M4845 3283 c15 -24 29 -43 30 -43 11 0 -12 43 -32 62 l-26 23 28 -42z"/>
<path d="M1425 2781 c-3 -6 3 -9 14 -8 11 0 17 5 15 9 -7 11 -22 10 -29 -1z"/>
<path d="M4500 1980 c0 -6 7 -13 15 -17 24 -9 27 1 5 15 -13 8 -20 8 -20 2z"/>
<path d="M5250 1908 c0 -19 2 -20 10 -8 13 19 13 30 0 30 -5 0 -10 -10 -10
-22z"/>
<path d="M5320 1830 c-7 -16 -16 -30 -21 -30 -5 0 -16 -14 -24 -31 -9 -16 -25
-33 -36 -37 -17 -7 -21 -19 -25 -76 -2 -38 -9 -75 -15 -83 -9 -10 -8 -13 4
-13 19 0 27 21 27 74 0 32 6 48 24 65 26 25 92 148 84 157 -3 2 -11 -9 -18
-26z"/>
<path d="M5204 1808 c-4 -6 1 -17 11 -24 10 -7 15 -20 12 -28 -4 -10 -1 -13 9
-9 10 4 14 13 10 27 -3 11 -6 27 -6 34 0 15 -26 16 -36 0z"/>
<path d="M4636 1675 c6 -87 13 -120 22 -111 11 11 1 127 -14 159 -14 30 -14
27 -8 -48z"/>
<path d="M5277 1692 c-27 -59 -35 -124 -17 -152 14 -23 23 -4 24 50 1 28 4 50
7 50 7 0 29 71 29 94 0 31 -15 16 -43 -42z"/>
<path d="M4601 1683 c-1 -18 19 -67 25 -61 3 3 -2 21 -10 39 -8 19 -15 29 -15
22z"/>
<path d="M5153 1588 c-23 -14 -33 -27 -33 -45 0 -18 4 -24 15 -19 8 3 18 -1
22 -9 7 -11 11 -11 26 0 15 10 16 18 8 33 -5 10 -7 28 -4 40 6 26 7 26 -34 0z"/>
<path d="M4340 1569 c2 -40 27 -133 38 -137 18 -6 25 23 17 65 -5 27 -9 33
-16 22 -6 -10 -9 -7 -9 12 0 15 -7 32 -15 39 -12 10 -15 10 -15 -1z"/>
<path d="M4300 1551 c0 -11 5 -23 10 -26 6 -3 10 3 10 14 0 11 -4 23 -10 26
-5 3 -10 -3 -10 -14z"/>
<path d="M4215 1513 c-2 -8 2 -26 10 -41 16 -30 16 -30 18 19 2 36 -17 50 -28
22z"/>
<path d="M3932 1506 c1 -10 8 -17 13 -17 15 1 12 24 -3 29 -9 3 -13 -2 -10
-12z"/>
<path d="M4513 1493 c8 -16 16 -35 19 -43 3 -11 9 -7 23 13 12 19 15 31 8 38
-8 8 -13 7 -17 0 -10 -16 -26 -13 -26 4 0 8 -5 15 -10 15 -6 0 -5 -11 3 -27z"/>
<path d="M5231 1503 c-1 -6 -4 -20 -7 -30 -5 -17 -5 -17 6 0 6 10 9 23 6 30
-3 9 -5 9 -5 0z"/>
<path d="M5144 1473 c-24 -24 -17 -44 14 -40 20 3 28 10 30 29 3 28 -20 34
-44 11z"/>
<path d="M4617 1463 c-11 -10 -8 -25 3 -18 5 3 2 -7 -7 -23 -10 -17 -23 -28
-30 -25 -11 4 -11 0 -1 -22 9 -21 9 -31 0 -46 -7 -10 -10 -19 -6 -19 11 0 31
26 39 50 4 14 12 30 17 36 15 20 17 52 4 63 -7 6 -16 8 -19 4z"/>
<path d="M5090 1463 c0 -7 -6 -13 -14 -13 -18 0 -30 -35 -20 -52 6 -9 11 -5
16 12 6 19 6 17 3 -10 -3 -20 1 -47 10 -64 8 -15 15 -37 15 -47 0 -24 18 -25
27 -1 4 9 15 26 25 36 21 23 23 47 6 64 -19 19 -26 15 -33 -18 -11 -51 -22
-42 -17 14 2 30 -1 62 -7 72 -6 11 -11 13 -11 7z"/>
<path d="M5260 1448 c0 -13 7 -81 14 -153 8 -71 12 -133 10 -136 -2 -4 3 -20
11 -35 19 -38 20 -67 1 -41 -7 9 -18 17 -25 17 -6 0 -11 5 -11 10 0 20 -21 10
-30 -15 -6 -15 -15 -23 -23 -19 -8 3 -21 -2 -30 -10 -19 -20 -28 -20 -21 -2 4
10 -1 14 -15 13 -18 -1 -21 -8 -21 -50 0 -26 5 -58 11 -69 6 -12 7 -18 1 -14
-5 3 -12 -1 -16 -9 -3 -8 -1 -17 4 -20 6 -4 10 -1 10 4 0 6 9 11 20 11 17 0
18 -4 10 -25 -10 -27 2 -75 20 -75 5 0 7 -13 4 -30 -4 -20 -2 -30 5 -30 7 0
10 4 6 10 -9 15 26 69 46 70 11 0 18 -40 8 -41 -5 -1 -15 -2 -21 -3 -16 -1
-24 -36 -9 -36 6 0 11 5 11 11 0 6 6 9 12 7 16 -6 48 34 48 59 1 22 52 63 58
45 7 -22 22 -1 16 23 -6 25 29 75 53 75 7 0 13 6 13 14 0 13 20 26 40 26 5 0
10 -10 12 -22 2 -16 9 -4 22 37 24 75 26 80 37 64 8 -12 11 -11 19 1 5 8 10
25 10 38 0 31 -28 28 -40 -4 -6 -15 -14 -22 -22 -18 -8 5 -9 2 -5 -9 8 -22 -1
-47 -18 -47 -8 0 -10 9 -7 26 3 18 1 25 -6 20 -6 -3 -13 -2 -17 4 -3 6 10 25
29 43 27 26 34 39 29 57 -4 15 -1 27 11 36 29 21 17 114 -15 114 -6 0 -7 -6
-3 -12 5 -8 1 -7 -10 2 -11 8 -14 16 -7 18 25 8 8 17 -38 18 -49 2 -171 48
-171 65 0 5 -4 9 -10 9 -5 0 -10 -10 -10 -22z m124 -199 c-25 -27 -29 -16 -7
21 13 23 19 27 21 15 2 -9 -4 -25 -14 -36z m17 -59 c11 -6 19 -21 19 -36 0
-14 4 -33 10 -44 7 -14 6 -17 -8 -16 -12 1 -20 -11 -27 -39 -9 -38 -12 -40
-44 -37 -27 3 -33 0 -28 -12 9 -22 -6 -20 -28 4 -24 27 -33 25 -41 -7 -7 -27
-26 -53 -39 -53 -3 0 -1 9 5 19 5 11 10 27 10 36 0 23 43 57 52 42 6 -9 11 -8
18 3 5 8 10 11 10 6 0 -6 5 -5 11 1 6 6 17 9 24 6 17 -6 27 27 27 88 -1 53 0
54 29 39z m-244 -197 c-3 -10 -5 -4 -5 12 0 17 2 24 5 18 2 -7 2 -21 0 -30z
m123 -72 c0 -22 -25 -45 -40 -36 -15 9 -12 35 5 35 8 0 15 5 15 10 0 6 5 10
10 10 6 0 10 -8 10 -19z"/>
<path d="M4482 1418 c-3 -38 -10 -47 -22 -28 -5 8 -12 11 -16 7 -4 -4 2 -20
15 -35 12 -15 24 -35 28 -44 3 -10 12 -18 19 -18 8 0 14 -4 14 -10 0 -5 -8 -7
-17 -3 -15 5 -16 4 -5 -8 11 -12 16 -11 28 6 14 18 12 22 -16 45 -31 26 -40
50 -17 50 8 0 24 -11 37 -25 13 -14 28 -25 34 -25 6 0 -6 17 -28 37 -24 22
-38 45 -38 59 0 36 -13 29 -16 -8z"/>
<path d="M4270 1411 c0 -16 5 -33 10 -36 6 -4 10 5 10 19 0 14 0 29 1 33 0 4
-4 9 -10 11 -6 2 -11 -9 -11 -27z"/>
<path d="M3940 1410 c0 -5 5 -10 11 -10 5 0 7 5 4 10 -3 6 -8 10 -11 10 -2 0
-4 -4 -4 -10z"/>
<path d="M4217 1393 c-11 -10 -8 -63 3 -63 6 0 10 16 10 35 0 36 -2 40 -13 28z"/>
<path d="M4322 1360 c0 -14 2 -19 5 -12 2 6 2 18 0 25 -3 6 -5 1 -5 -13z"/>
<path d="M5225 1350 c6 -19 -2 -25 -32 -21 -7 1 -13 -8 -13 -19 0 -12 4 -19 9
-15 5 3 13 0 17 -6 4 -8 9 -7 15 2 6 10 10 7 17 -11 8 -22 9 -21 15 14 7 43 2
62 -19 70 -12 4 -14 1 -9 -14z"/>
<path d="M5731 1314 c0 -11 3 -14 6 -6 3 7 2 16 -1 19 -3 4 -6 -2 -5 -13z"/>
<path d="M4550 1286 c0 -8 5 -18 10 -21 6 -3 10 -15 10 -26 0 -10 5 -19 10
-19 15 0 12 26 -5 40 -8 7 -13 16 -10 20 3 5 1 11 -5 15 -5 3 -10 -1 -10 -9z"/>
<path d="M5578 1245 c-3 -14 -1 -28 3 -31 5 -3 9 9 9 25 0 38 -6 40 -12 6z"/>
<path d="M5220 1233 c0 -5 9 -21 20 -38 22 -34 27 -23 8 18 -12 25 -28 36 -28
20z"/>
<path d="M5540 1229 c0 -5 5 -7 10 -4 6 3 10 8 10 11 0 2 -4 4 -10 4 -5 0 -10
-5 -10 -11z"/>
<path d="M5620 1200 c-6 -11 -7 -20 -2 -20 10 0 32 21 32 32 0 16 -19 8 -30
-12z"/>
<path d="M4901 1185 c0 -18 28 -61 29 -44 0 8 -7 24 -15 35 -8 10 -14 15 -14
9z"/>
<path d="M4865 1159 c4 -13 2 -25 -5 -29 -7 -5 -15 -22 -16 -38 -3 -22 1 -31
15 -35 14 -3 17 -11 14 -31 -3 -15 -1 -26 6 -26 6 0 11 -8 11 -17 0 -12 5 -9
15 11 17 32 19 78 6 104 -5 9 -16 32 -23 50 -14 35 -33 45 -23 11z"/>
<path d="M5120 1166 c0 -8 4 -17 8 -20 4 -2 8 4 8 15 0 10 -4 19 -8 19 -4 0
-8 -6 -8 -14z"/>
<path d="M5156 1157 c3 -10 9 -15 12 -12 3 3 0 11 -7 18 -10 9 -11 8 -5 -6z"/>
<path d="M4191 1044 c0 -11 3 -14 6 -6 3 7 2 16 -1 19 -3 4 -6 -2 -5 -13z"/>
<path d="M4231 1055 c-8 -43 -8 -95 -1 -95 13 0 40 60 39 84 -1 17 -2 18 -6 4
-2 -10 -8 -18 -13 -18 -5 0 -11 8 -13 18 -3 9 -5 13 -6 7z"/>
<path d="M4930 1039 c0 -5 5 -7 10 -4 6 3 10 8 10 11 0 2 -4 4 -10 4 -5 0 -10
-5 -10 -11z"/>
<path d="M4650 1020 c0 -5 5 -10 10 -10 6 0 10 5 10 10 0 6 -4 10 -10 10 -5 0
-10 -4 -10 -10z"/>
<path d="M4690 1001 c0 -17 5 -31 10 -31 6 0 10 11 10 24 0 14 -4 28 -10 31
-6 4 -10 -7 -10 -24z"/>
<path d="M5050 1025 c0 -2 11 -21 25 -41 20 -30 26 -33 31 -20 10 26 -12 66
-36 66 -11 0 -20 -2 -20 -5z"/>
<path d="M4110 996 c0 -8 4 -17 9 -20 5 -4 7 3 4 14 -6 23 -13 26 -13 6z"/>
<path d="M4201 994 c0 -11 3 -14 6 -6 3 7 2 16 -1 19 -3 4 -6 -2 -5 -13z"/>
<path d="M4953 1003 c-13 -3 -23 -12 -23 -21 0 -25 -39 -57 -53 -43 -16 16
-37 13 -37 -4 0 -18 -17 -20 -23 -2 -8 21 -21 -2 -19 -36 3 -84 13 -140 27
-160 15 -21 15 -21 15 13 l0 35 20 -25 20 -25 0 35 c0 25 3 31 9 21 11 -18 43
-24 39 -8 -2 7 9 28 25 48 15 20 27 47 27 60 0 15 12 34 29 48 l30 25 -22 23
c-12 12 -26 22 -32 21 -5 0 -20 -3 -32 -5z m-33 -122 c0 -11 -4 -23 -10 -26
-6 -4 -10 5 -10 19 0 14 5 26 10 26 6 0 10 -9 10 -19z"/>
<path d="M4847 980 c-3 -11 -1 -20 4 -20 5 0 9 9 9 20 0 11 -2 20 -4 20 -2 0
-6 -9 -9 -20z"/>
<path d="M4610 966 c0 -13 -3 -33 -6 -43 -6 -16 -5 -16 9 2 19 23 22 51 7 60
-6 3 -10 -5 -10 -19z"/>
<path d="M4722 955 c0 -11 3 -29 8 -40 11 -25 11 1 0 35 -6 20 -8 21 -8 5z"/>
<path d="M5034 918 c-22 -31 -44 -78 -38 -78 5 0 3 -5 -4 -12 -7 -7 -12 -16
-12 -22 0 -6 5 -5 12 2 7 7 16 8 23 2 7 -6 15 -3 22 9 10 16 9 18 -8 14 -29
-8 -23 13 11 37 17 12 30 30 30 41 0 21 -23 26 -36 7z"/>
<path d="M4117 903 c-3 -5 -3 -23 2 -39 7 -29 7 -29 14 -5 6 26 -6 60 -16 44z"/>
<path d="M4218 904 c-5 -4 -8 -21 -8 -38 0 -21 3 -27 11 -19 6 6 9 23 7 38 -2
15 -6 23 -10 19z"/>
<path d="M4632 885 c0 -16 2 -22 5 -12 2 9 2 23 0 30 -3 6 -5 -1 -5 -18z"/>
<path d="M4670 850 c0 -33 -3 -41 -15 -36 -8 3 -15 2 -15 -3 0 -17 14 -19 36
-4 27 17 32 54 9 73 -13 11 -15 7 -15 -30z"/>
<path d="M5100 876 c0 -9 -4 -16 -10 -16 -5 0 -10 -7 -10 -15 0 -8 -4 -15 -10
-15 -5 0 -10 -7 -10 -16 0 -10 5 -14 15 -10 22 8 30 -19 15 -54 -10 -24 -9
-35 4 -61 9 -18 13 -42 10 -53 -6 -18 -8 -17 -19 10 l-12 29 -17 -34 -18 -34
29 -23 c35 -29 89 -32 98 -5 12 39 7 130 -8 151 -9 12 -13 29 -10 36 6 17 -9
18 -25 2 -9 -9 -11 1 -7 50 2 34 0 64 -5 67 -6 3 -10 -1 -10 -9z m60 -236 c0
-6 -11 2 -25 18 -14 17 -25 35 -25 42 0 6 11 -2 25 -18 14 -17 25 -35 25 -42z"/>
<path d="M4534 815 c4 -11 12 -49 17 -84 9 -61 22 -91 40 -91 4 0 7 18 7 40 0
22 -5 40 -10 40 -6 0 -8 16 -5 38 3 20 3 29 1 19 -7 -21 -24 -13 -24 12 0 10
-8 25 -17 32 -15 12 -16 12 -9 -6z"/>
<path d="M4683 792 c-14 -9 -17 -27 -15 -95 2 -34 6 -46 14 -41 6 4 16 0 23
-9 11 -16 14 -15 39 4 l26 20 0 -24 c0 -14 -7 -40 -15 -58 -14 -34 -14 -34
-15 -6 0 16 -6 27 -14 27 -18 0 -31 -93 -16 -119 5 -11 7 -34 3 -52 l-6 -32
-16 29 -16 29 -3 -38 c-2 -23 -7 -35 -14 -31 -6 4 -14 0 -19 -7 -6 -9 -7 2 -3
29 6 37 4 42 -10 36 -9 -3 -16 -12 -16 -20 0 -8 -4 -14 -10 -14 -15 0 -12 28
4 37 8 4 17 30 21 57 6 35 5 47 -4 42 -6 -4 -11 -13 -11 -20 0 -8 -7 -20 -17
-27 -15 -13 -16 -11 -9 16 16 59 12 87 -12 96 -17 7 -22 5 -22 -8 0 -9 -8 -25
-17 -36 -12 -12 -20 -43 -24 -94 -4 -48 -11 -78 -20 -84 -12 -7 -9 -17 13 -56
14 -27 29 -64 33 -84 6 -35 9 -37 48 -37 86 -2 120 37 102 118 -6 30 -6 31 13
19 27 -17 45 -2 61 52 12 40 11 43 -13 66 -24 22 -38 82 -16 68 6 -3 10 -14
10 -24 0 -10 9 -26 19 -35 19 -17 37 -76 32 -106 -2 -10 3 -8 12 5 8 11 15 40
15 64 1 25 9 52 17 61 15 17 21 81 8 93 -7 8 -41 -58 -44 -83 0 -8 -4 -4 -9
10 l-7 25 -11 -25 c-10 -24 -11 -24 -11 -3 -1 12 5 26 13 30 8 5 16 28 18 53
4 43 4 44 16 20 11 -22 12 -20 9 28 -4 56 -13 74 -26 53 -7 -10 -9 -10 -14 2
-3 8 -1 19 5 25 8 8 5 9 -8 6 -13 -4 -26 4 -42 25 -24 33 -30 35 -49 23z m54
-403 c-18 -25 -28 -5 -15 31 8 23 10 23 19 7 7 -12 6 -23 -4 -38z"/>
<path d="M4948 785 c-9 -10 22 -56 33 -49 5 3 9 -2 9 -10 0 -9 7 -16 15 -16
18 0 18 5 5 31 -6 10 -19 19 -30 19 -10 0 -20 7 -22 16 -2 9 -6 13 -10 9z"/>
<path d="M4474 725 c0 -36 4 -56 13 -59 7 -3 13 -16 13 -28 0 -18 2 -20 10 -8
6 10 4 22 -5 37 -8 12 -15 43 -15 68 0 25 -3 45 -7 45 -5 0 -8 -25 -9 -55z"/>
<path d="M4510 753 c0 -26 11 -63 19 -63 4 0 5 18 3 40 -4 39 -22 58 -22 23z"/>
<path d="M4390 745 c0 -6 8 -26 18 -45 20 -38 29 -155 12 -165 -13 -8 -13 -51
0 -76 13 -24 45 -26 36 -2 -11 26 -16 153 -7 153 5 0 11 -14 15 -32 4 -22 9
-29 17 -21 7 7 6 21 -4 46 -9 19 -12 39 -9 43 4 4 2 4 -4 1 -15 -8 -34 36 -27
62 3 13 1 21 -6 21 -7 0 -9 -6 -6 -12 4 -7 -3 -2 -14 12 -11 14 -21 20 -21 15z"/>
<path d="M4875 699 c-8 -35 -1 -47 18 -30 15 11 12 61 -3 61 -5 0 -11 -14 -15
-31z"/>
<path d="M4950 714 c0 -8 5 -12 10 -9 6 4 8 11 5 16 -9 14 -15 11 -15 -7z"/>
<path d="M4926 701 c-5 -7 -3 -18 3 -24 14 -14 20 -6 11 17 -5 15 -9 16 -14 7z"/>
<path d="M5190 665 c0 -42 16 -85 31 -85 7 0 5 9 -5 25 -19 29 -16 40 14 48
15 4 20 0 20 -14 0 -13 7 -19 22 -19 20 0 20 2 -11 34 -18 19 -42 36 -52 39
-16 4 -19 0 -19 -28z"/>
<path d="M4980 670 c0 -5 5 -10 11 -10 5 0 7 5 4 10 -3 6 -8 10 -11 10 -2 0
-4 -4 -4 -10z"/>
<path d="M4669 585 c-4 -5 -10 -32 -14 -59 -6 -46 -6 -48 10 -33 11 12 15 30
13 59 -2 24 -6 39 -9 33z"/>
<path d="M4885 535 c7 -66 7 -66 0 -95 -6 -23 -5 -24 8 -7 8 9 19 17 26 17 15
0 8 37 -18 91 l-21 44 5 -50z"/>
<path d="M5175 548 c-17 -17 -29 -19 -72 -15 -46 5 -52 3 -56 -16 -6 -26 -4
-58 5 -73 4 -5 3 -16 -2 -24 -4 -7 -6 -19 -3 -27 4 -9 -5 -13 -31 -13 -33 0
-36 -3 -36 -28 0 -15 -7 -38 -16 -51 -14 -19 -15 -31 -5 -79 14 -71 15 -103 1
-82 -5 8 -10 35 -10 60 0 25 -4 40 -9 35 -9 -11 -61 -196 -61 -220 0 -13 58
-15 475 -15 l475 0 -12 21 c-16 27 -61 74 -71 74 -4 0 -16 15 -27 33 -11 18
-25 30 -30 27 -13 -8 -13 8 1 22 7 7 3 16 -14 29 -13 11 -22 24 -20 30 2 7 -8
14 -22 18 -14 4 -25 13 -25 22 0 8 -4 12 -10 9 -5 -3 -10 1 -10 9 0 9 -7 16
-15 16 -8 0 -14 3 -13 8 4 10 -47 59 -58 55 -5 -2 -14 7 -19 19 -6 12 -27 30
-47 41 -21 10 -38 23 -38 28 0 5 -7 9 -15 9 -8 0 -12 6 -9 14 3 8 1 17 -5 21
-6 3 -11 1 -11 -6 0 -8 -3 -9 -13 0 -8 6 -18 7 -22 3 -5 -4 -5 1 -2 11 6 15 3
17 -13 12 -14 -4 -27 2 -43 19 -26 28 -37 25 -37 -10 0 -13 -4 -26 -10 -29 -6
-4 -10 8 -10 29 0 41 -7 43 -35 14z m-86 -128 c10 -5 45 -35 77 -66 33 -32 53
-54 47 -50 -8 5 -13 1 -13 -10 0 -24 -28 1 -32 29 -2 12 -7 21 -13 20 -22 -3
-44 18 -40 38 3 15 0 19 -10 15 -21 -8 -45 3 -45 20 0 17 5 17 29 4z m8 -66
c2 -10 0 -13 -3 -6 -3 6 -12 12 -20 12 -9 0 -12 5 -9 11 10 15 30 5 32 -17z
m208 -151 c4 -14 2 -23 -4 -23 -6 0 -11 6 -11 14 0 8 -3 23 -6 33 -5 12 -4 15
3 8 6 -5 14 -20 18 -32z m55 -43 c11 -16 16 -31 11 -34 -5 -3 -18 12 -29 34
-22 44 -14 44 18 0z m300 30 c0 -5 -5 -10 -11 -10 -5 0 -7 5 -4 10 3 6 8 10
11 10 2 0 4 -4 4 -10z m-249 -77 c13 -16 12 -17 -3 -4 -17 13 -22 21 -14 21 2
0 10 -8 17 -17z"/>
<path d="M4911 414 c0 -11 3 -14 6 -6 3 7 2 16 -1 19 -3 4 -6 -2 -5 -13z"/>
<path d="M4770 340 c-6 -11 -7 -20 -3 -20 5 0 14 9 21 20 7 11 8 20 2 20 -5 0
-14 -9 -20 -20z"/>
</g>
</svg>
